<?xml version="1.0" encoding="UTF-8" standalone="no"?>
<!-- Created with Inkscape (http://www.inkscape.org/) -->
<svg
   xmlns:dc="http://purl.org/dc/elements/1.1/"
   xmlns:cc="http://creativecommons.org/ns#"
   xmlns:rdf="http://www.w3.org/1999/02/22-rdf-syntax-ns#"
   xmlns:svg="http://www.w3.org/2000/svg"
   xmlns="http://www.w3.org/2000/svg"
   xmlns:xlink="http://www.w3.org/1999/xlink"
   xmlns:sodipodi="http://sodipodi.sourceforge.net/DTD/sodipodi-0.dtd"
   xmlns:inkscape="http://www.inkscape.org/namespaces/inkscape"
   width="744.09448819"
   height="1052.3622047"
   id="svg2"
   sodipodi:version="0.32"
   inkscape:version="0.46"
   inkscape:export-filename="/home/cwillu/work/dominos/reports/reports/static/images/mantis-angle.png"
   inkscape:export-xdpi="5.8084145"
   inkscape:export-ydpi="5.8084145"
   sodipodi:docname="mantis-down-wall.svg"
   inkscape:output_extension="org.inkscape.output.svg.inkscape">
  <defs
     id="defs4">
    <linearGradient
       id="linearGradient3540">
      <stop
         style="stop-color:#edffdc;stop-opacity:1;"
         offset="0"
         id="stop3542" />
      <stop
         style="stop-color:#9eff40;stop-opacity:1;"
         offset="1"
         id="stop3544" />
    </linearGradient>
    <inkscape:perspective
       sodipodi:type="inkscape:persp3d"
       inkscape:vp_x="0 : 526.18109 : 1"
       inkscape:vp_y="0 : 1000 : 0"
       inkscape:vp_z="744.09448 : 526.18109 : 1"
       inkscape:persp3d-origin="372.04724 : 350.78739 : 1"
       id="perspective10" />
    <filter
       inkscape:collect="always"
       id="filter3524">
      <feGaussianBlur
         inkscape:collect="always"
         stdDeviation="3.408053"
         id="feGaussianBlur3526" />
    </filter>
    <filter
       inkscape:collect="always"
       id="filter3528">
      <feGaussianBlur
         inkscape:collect="always"
         stdDeviation="3.408053"
         id="feGaussianBlur3530" />
    </filter>
    <filter
       inkscape:collect="always"
       id="filter3536">
      <feGaussianBlur
         inkscape:collect="always"
         stdDeviation="1.0909165"
         id="feGaussianBlur3538" />
    </filter>
    <radialGradient
       inkscape:collect="always"
       xlink:href="#linearGradient3540"
       id="radialGradient3553"
       gradientUnits="userSpaceOnUse"
       gradientTransform="matrix(1.2916169,0.2018606,-0.1535158,0.9822805,-54.814223,-66.675611)"
       cx="370.65613"
       cy="237.60356"
       fx="370.65613"
       fy="237.60356"
       r="100.72001" />
    <radialGradient
       inkscape:collect="always"
       xlink:href="#linearGradient3540"
       id="radialGradient3596"
       gradientUnits="userSpaceOnUse"
       gradientTransform="matrix(1.2916169,0.2018606,-0.1535158,0.9822805,-54.814223,-66.675611)"
       cx="370.65613"
       cy="237.60356"
       fx="370.65613"
       fy="237.60356"
       r="100.72001" />
  </defs>
  <sodipodi:namedview
     id="base"
     pagecolor="#ffffff"
     bordercolor="#666666"
     borderopacity="1.0"
     gridtolerance="10000"
     guidetolerance="10"
     objecttolerance="10"
     inkscape:pageopacity="0.0"
     inkscape:pageshadow="2"
     inkscape:zoom="0.35"
     inkscape:cx="-5.9335809"
     inkscape:cy="237.70281"
     inkscape:document-units="px"
     inkscape:current-layer="layer1"
     showgrid="false"
     showguides="true"
     inkscape:guide-bbox="true"
     inkscape:window-width="1043"
     inkscape:window-height="919"
     inkscape:window-x="25"
     inkscape:window-y="76" />
  <metadata
     id="metadata7">
    <rdf:RDF>
      <cc:Work
         rdf:about="">
        <dc:format>image/svg+xml</dc:format>
        <dc:type
           rdf:resource="http://purl.org/dc/dcmitype/StillImage" />
      </cc:Work>
    </rdf:RDF>
  </metadata>
  <g
     inkscape:label="Layer 1"
     inkscape:groupmode="layer"
     id="layer1">
    <path
       style="fill:#00cf00;fill-opacity:1;fill-rule:evenodd;stroke:none;stroke-width:0.36616197px;stroke-linecap:butt;stroke-linejoin:miter;stroke-opacity:1"
       d="M 620.6875 583.0625 C 592.10647 582.85068 545.79051 602.17733 475.5625 681.53125 L 598.78125 681.53125 C 651.24146 619.85723 649.33877 596.77466 645.71875 589.4375 C 646.49804 589.88093 647.22938 590.32219 647.9375 590.78125 L 644.5 587.5 C 644.87483 587.95733 645.27954 588.6131 645.6875 589.4375 C 639.62774 585.99418 631.41281 583.14199 620.6875 583.0625 z M 647.9375 590.78125 L 659.46875 601.875 C 659.46875 601.875 655.95095 595.9762 647.9375 590.78125 z M 643.40625 586.4375 L 644.0625 587.03125 C 643.67463 586.63303 643.40625 586.4375 643.40625 586.4375 z M 170.78125 592.375 C 163.05462 592.34954 156.44528 593.4004 150.9375 594.90625 C 151.75039 594.0491 152.50674 593.44488 153.125 593.0625 L 147.8125 595.84375 C 148.79975 595.52088 149.83342 595.20008 150.90625 594.90625 C 145.12305 601.02509 137.92416 621.04148 178.53125 681.53125 L 310.65625 681.53125 C 248.29272 609.33573 201.09941 592.47491 170.78125 592.375 z M 147.8125 595.84375 C 136.74974 599.46174 131.0625 604.59375 131.0625 604.59375 L 147.8125 595.84375 z M 153.125 593.0625 L 154.40625 592.40625 C 154.40625 592.40625 153.88862 592.59022 153.125 593.0625 z "
       id="path3329" />
    <path
       style="fill:url(#radialGradient3596);fill-opacity:1;fill-rule:evenodd;stroke:#000000;stroke-width:1.07606065px;stroke-linecap:butt;stroke-linejoin:miter;stroke-opacity:1;filter:url(#filter3536)"
       d="M 374.59584,280.29999 C 366.17325,273.76605 261.06696,205.09107 228.41398,277.13959 C 217.14922,330.77207 223.09017,449.01049 223.01866,461.1302 C 288.50753,454.00127 350.53647,435.91714 410.81744,410.14725 C 454.46745,359.21568 383.84436,287.47465 374.59584,280.29999 z"
       id="rect2383"
       sodipodi:nodetypes="ccccs"
       transform="matrix(0.8938627,-1.4843069,1.4843069,0.8938627,-446.42244,586.99218)"
       inkscape:transform-center-x="17.804994"
       inkscape:transform-center-y="17.064509" />
    <path
       transform="matrix(1.0340562,-0.2588097,0.4281506,0.9509045,-591.17024,240.50899)"
       d="M 674.78193,421.01685 A 62.629459,110.10663 0 1 1 549.52301,421.01685 A 62.629459,110.10663 0 1 1 674.78193,421.01685 z"
       sodipodi:ry="110.10663"
       sodipodi:rx="62.629459"
       sodipodi:cy="421.01685"
       sodipodi:cx="612.15247"
       id="path3164"
       style="fill:#d3ff00;fill-opacity:1;stroke:#000000;stroke-opacity:1;filter:url(#filter3524)"
       sodipodi:type="arc"
       inkscape:transform-center-x="135.97345"
       inkscape:transform-center-y="31.326684" />
    <path
       sodipodi:type="arc"
       style="fill:#d3ff00;fill-opacity:1;stroke:#000000;stroke-opacity:1;filter:url(#filter3528)"
       id="path3166"
       sodipodi:cx="612.15247"
       sodipodi:cy="421.01685"
       sodipodi:rx="62.629459"
       sodipodi:ry="110.10663"
       d="M 674.78193,421.01685 A 62.629459,110.10663 0 1 1 549.52301,421.01685 A 62.629459,110.10663 0 1 1 674.78193,421.01685 z"
       transform="matrix(1.0515661,0.1745376,1.3910848e-2,1.0427553,-172.54214,-154.93847)"
       inkscape:transform-center-x="-118.97146"
       inkscape:transform-center-y="-60.175424" />
    <path
       style="fill:none;fill-rule:evenodd;stroke:#868686;stroke-width:9.14100933;stroke-linecap:butt;stroke-linejoin:miter;stroke-miterlimit:4;stroke-dasharray:none;stroke-opacity:1"
       d="M 374.16416,371.39107 C 274.51686,-235.70599 263.78166,-97.318229 263.78166,-97.318229"
       id="path3176"
       sodipodi:nodetypes="cc"
       inkscape:transform-center-x="39.088972"
       inkscape:transform-center-y="-320.84661" />
    <path
       sodipodi:nodetypes="cc"
       id="path3178"
       d="M 291.27486,401.70883 C 1.4965552,-131.36253 47.661455,-0.40397884 47.661455,-0.40397884"
       style="fill:none;fill-rule:evenodd;stroke:#868686;stroke-width:7.40871096;stroke-linecap:butt;stroke-linejoin:miter;stroke-miterlimit:4;stroke-dasharray:none;stroke-opacity:1"
       inkscape:transform-center-x="189.94142"
       inkscape:transform-center-y="-257.55308" />
    <path
       id="path3321"
       style="fill:#00cf00;fill-opacity:1;fill-rule:evenodd;stroke:none;stroke-width:0.36616197px;stroke-linecap:butt;stroke-linejoin:miter;stroke-opacity:1"
       d="M 155.65896,600.02109 C 155.65896,600.02109 127.94536,599.45192 146.96036,695.19777 C 174.62066,834.47319 234.81886,813.39761 245.69826,812.70428 C 240.21136,797.63075 234.21586,807.73178 222.27776,717.02969 C 203.92646,577.60112 138.50266,602.3686 138.50266,602.3686"
       sodipodi:nodetypes="cscsc" />
    <path
       sodipodi:nodetypes="cscsc"
       d="M 635.72776,585.73538 C 635.72776,585.73538 657.83286,585.16621 642.66596,680.91206 C 620.60336,820.18748 572.58746,799.1119 563.90976,798.41857 C 568.28626,783.34504 573.06846,793.44607 582.59066,702.74398 C 597.22826,563.31541 649.41206,588.08289 649.41206,588.08289"
       style="fill:#00cf00;fill-opacity:1;fill-rule:evenodd;stroke:none;stroke-width:0.36616197px;stroke-linecap:butt;stroke-linejoin:miter;stroke-opacity:1"
       id="path3331" />
    <path
       sodipodi:type="arc"
       style="opacity:0.52314818;fill:#000000;fill-opacity:1;stroke:none;stroke-width:7.40871096;stroke-miterlimit:4;stroke-dasharray:none;stroke-opacity:1"
       id="path3555"
       sodipodi:cx="-3091.0669"
       sodipodi:cy="276.56503"
       sodipodi:rx="20.203051"
       sodipodi:ry="24.243662"
       d="M -3070.8638,276.56503 A 20.203051,24.243662 0 1 1 -3111.2699,276.56503 A 20.203051,24.243662 0 1 1 -3070.8638,276.56503 z"
       transform="matrix(1.2916666,0,0,1.2916666,4271.5674,182.13942)"
       inkscape:transform-center-x="83.122348"
       inkscape:transform-center-y="102.27111" />
    <path
       transform="matrix(1.2916666,0,0,1.2916666,4497.7807,97.44904)"
       d="M -3070.8638,276.56503 A 20.203051,24.243662 0 1 1 -3111.2699,276.56503 A 20.203051,24.243662 0 1 1 -3070.8638,276.56503 z"
       sodipodi:ry="24.243662"
       sodipodi:rx="20.203051"
       sodipodi:cy="276.56503"
       sodipodi:cx="-3091.0669"
       id="path3561"
       style="opacity:0.45833333;fill:#000000;fill-opacity:1;stroke:none;stroke-width:7.40871096;stroke-miterlimit:4;stroke-dasharray:none;stroke-opacity:1"
       sodipodi:type="arc"
       inkscape:transform-center-x="-131.09095"
       inkscape:transform-center-y="25.580732" />
  </g>
</svg>
